<svg xmlns="http://www.w3.org/2000/svg" viewBox="0 0 800 390" width="800" height="390">
  <defs>
    <linearGradient id="featBg" x1="0%" y1="0%" x2="100%" y2="100%">
      <stop offset="0%" style="stop-color:#0d1117;stop-opacity:1" />
      <stop offset="100%" style="stop-color:#161b22;stop-opacity:1" />
    </linearGradient>
    <linearGradient id="featAccent" x1="0%" y1="0%" x2="100%" y2="0%">
      <stop offset="0%" style="stop-color:#00b4d8;stop-opacity:1" />
      <stop offset="100%" style="stop-color:#0077b6;stop-opacity:1" />
    </linearGradient>
  </defs>
  <rect width="800" height="390" fill="url(#featBg)" rx="12"/>
  <text x="400" y="38" font-family="Segoe UI,Arial,sans-serif" font-size="20" fill="#ffffff" text-anchor="middle" font-weight="bold">Key Features</text>
  <rect x="300" y="48" width="200" height="3" fill="url(#featAccent)" rx="2"/>
  
  <rect x="30" y="65" width="235" height="130" rx="10" fill="#161b22" stroke="#00b4d8" stroke-width="1.5"/>
  <text x="50" y="95" font-family="Segoe UI,Arial,sans-serif" font-size="20">⚡</text>
  <text x="78" y="97" font-family="Segoe UI,Arial,sans-serif" font-size="13" fill="#ffffff" font-weight="bold">Severity Classification</text>
  <text x="45" y="123" font-family="Segoe UI,Arial,sans-serif" font-size="11" fill="#8b949e">5 levels: None, Mild, Moderate, Severe</text>
  <text x="45" y="140" font-family="Segoe UI,Arial,sans-serif" font-size="11" fill="#8b949e">, Contraindicated with visual indicato</text>
  <text x="45" y="157" font-family="Segoe UI,Arial,sans-serif" font-size="11" fill="#8b949e">rs</text>
  <rect x="30" y="185" width="235" height="10" rx="0" ry="5" fill="#00b4d8" opacity="0.15"/>
  <rect x="285" y="65" width="235" height="130" rx="10" fill="#161b22" stroke="#00b4d8" stroke-width="1.5"/>
  <text x="305" y="95" font-family="Segoe UI,Arial,sans-serif" font-size="20">🔍</text>
  <text x="333" y="97" font-family="Segoe UI,Arial,sans-serif" font-size="13" fill="#ffffff" font-weight="bold">Food-Drug Interactions</text>
  <text x="300" y="123" font-family="Segoe UI,Arial,sans-serif" font-size="11" fill="#8b949e">Database of 10+ medications with food/</text>
  <text x="300" y="140" font-family="Segoe UI,Arial,sans-serif" font-size="11" fill="#8b949e">substance warnings (warfarin+vitamin K</text>
  <text x="300" y="157" font-family="Segoe UI,Arial,sans-serif" font-size="11" fill="#8b949e">, etc.)</text>
  <rect x="285" y="185" width="235" height="10" rx="0" ry="5" fill="#00b4d8" opacity="0.15"/>
  <rect x="540" y="65" width="235" height="130" rx="10" fill="#161b22" stroke="#00b4d8" stroke-width="1.5"/>
  <text x="560" y="95" font-family="Segoe UI,Arial,sans-serif" font-size="20">📊</text>
  <text x="588" y="97" font-family="Segoe UI,Arial,sans-serif" font-size="13" fill="#ffffff" font-weight="bold">Dosage Notes</text>
  <text x="555" y="123" font-family="Segoe UI,Arial,sans-serif" font-size="11" fill="#8b949e">Common adult dosages for 10+ frequentl</text>
  <text x="555" y="140" font-family="Segoe UI,Arial,sans-serif" font-size="11" fill="#8b949e">y prescribed medications</text>
  <text x="555" y="157" font-family="Segoe UI,Arial,sans-serif" font-size="11" fill="#8b949e"></text>
  <rect x="540" y="185" width="235" height="10" rx="0" ry="5" fill="#00b4d8" opacity="0.15"/>
  <rect x="30" y="220" width="235" height="130" rx="10" fill="#161b22" stroke="#00b4d8" stroke-width="1.5"/>
  <text x="50" y="250" font-family="Segoe UI,Arial,sans-serif" font-size="20">🔄</text>
  <text x="78" y="252" font-family="Segoe UI,Arial,sans-serif" font-size="13" fill="#ffffff" font-weight="bold">Alternative Medications</text>
  <text x="45" y="278" font-family="Segoe UI,Arial,sans-serif" font-size="11" fill="#8b949e">Substitute medication suggestions for </text>
  <text x="45" y="295" font-family="Segoe UI,Arial,sans-serif" font-size="11" fill="#8b949e">10+ common drug classes</text>
  <text x="45" y="312" font-family="Segoe UI,Arial,sans-serif" font-size="11" fill="#8b949e"></text>
  <rect x="30" y="340" width="235" height="10" rx="0" ry="5" fill="#00b4d8" opacity="0.15"/>
  <rect x="285" y="220" width="235" height="130" rx="10" fill="#161b22" stroke="#00b4d8" stroke-width="1.5"/>
  <text x="305" y="250" font-family="Segoe UI,Arial,sans-serif" font-size="20">🛡️</text>
  <text x="333" y="252" font-family="Segoe UI,Arial,sans-serif" font-size="13" fill="#ffffff" font-weight="bold">Interactive Session</text>
  <text x="300" y="278" font-family="Segoe UI,Arial,sans-serif" font-size="11" fill="#8b949e">Multi-command session: check, food, al</text>
  <text x="300" y="295" font-family="Segoe UI,Arial,sans-serif" font-size="11" fill="#8b949e">t, dose in one workflow</text>
  <text x="300" y="312" font-family="Segoe UI,Arial,sans-serif" font-size="11" fill="#8b949e"></text>
  <rect x="285" y="340" width="235" height="10" rx="0" ry="5" fill="#00b4d8" opacity="0.15"/>
  <rect x="540" y="220" width="235" height="130" rx="10" fill="#161b22" stroke="#00b4d8" stroke-width="1.5"/>
  <text x="560" y="250" font-family="Segoe UI,Arial,sans-serif" font-size="20">📋</text>
  <text x="588" y="252" font-family="Segoe UI,Arial,sans-serif" font-size="13" fill="#ffffff" font-weight="bold">Rich Results Display</text>
  <text x="555" y="278" font-family="Segoe UI,Arial,sans-serif" font-size="11" fill="#8b949e">Formatted tables with medications, sev</text>
  <text x="555" y="295" font-family="Segoe UI,Arial,sans-serif" font-size="11" fill="#8b949e">erity, food warnings, alternatives</text>
  <text x="555" y="312" font-family="Segoe UI,Arial,sans-serif" font-size="11" fill="#8b949e"></text>
  <rect x="540" y="340" width="235" height="10" rx="0" ry="5" fill="#00b4d8" opacity="0.15"/>
</svg>